<svg>
  <symbol id="mapPin" xmlns="http://www.w3.org/2000/svg" viewBox="0 0 384 512">
    <path d="M172.268 501.67C26.97 291.031 0 269.413 0 192 0 85.961 85.961 0 192 0s192 85.961 192 192c0 77.413-26.97 99.031-172.268 309.67-9.535 13.774-29.93 13.773-39.464 0zM192 272c44.183 0 80-35.817 80-80s-35.817-80-80-80-80 35.817-80 80 35.817 80 80 80z"/>
  </symbol>

  <symbol id="facebook" xmlns="http://www.w3.org/2000/svg" viewBox="0 0 155.139 155.139">
	  <path id="f_1_" d="M89.584,155.139V84.378h23.742l3.562-27.585H89.584V39.184
		c0-7.984,2.208-13.425,13.67-13.425l14.595-0.006V1.08C115.325,0.752,106.661,0,96.577,0C75.52,0,61.104,12.853,61.104,36.452
		v20.341H37.29v27.585h23.814v70.761H89.584z"/>
  </symbol>

  <symbol id="instagram" viewBox="0 0 512 512" xmlns="http://www.w3.org/2000/svg">
    <path d="m256 120.5c-74.714844 0-135.5 60.785156-135.5 135.5s60.785156 135.5 135.5 135.5 135.5-60.785156 135.5-135.5-60.785156-135.5-135.5-135.5zm0 241c-58.171875 0-105.5-47.328125-105.5-105.5s47.328125-105.5 105.5-105.5c58.175781 0 105.5 47.328125 105.5 105.5s-47.324219 105.5-105.5 105.5zm0 0"/><path d="m460.410156 51.589844c-33.265625-33.269532-77.332031-51.589844-124.074218-51.589844h-160.671876c-46.742187 0-90.808593 18.320312-124.074218 51.589844-33.269532 33.265625-51.589844 77.332031-51.589844 124.074218v160.667969c0 46.746094 18.320312 90.8125 51.589844 124.078125 33.265625 33.269532 77.332031 51.589844 124.074218 51.589844h160.671876c46.742187 0 90.808593-18.320312 124.074218-51.589844 33.269532-33.265625 51.589844-77.332031 51.589844-124.078125v-160.667969c0-46.742187-18.320312-90.808593-51.589844-124.074218zm21.589844 284.742187c0 80.320313-65.347656 145.667969-145.664062 145.667969h-160.671876c-80.316406 0-145.664062-65.347656-145.664062-145.667969v-160.667969c0-80.316406 65.347656-145.664062 145.664062-145.664062h160.671876c80.316406 0 145.664062 65.347656 145.664062 145.664062zm0 0"/><path d="m395.511719 101.488281c-3.953125 0-7.820313 1.609375-10.613281 4.402344-2.789063 2.789063-4.386719 6.660156-4.386719 10.597656 0 3.949219 1.597656 7.820313 4.386719 10.609375 2.792968 2.792969 6.660156 4.390625 10.613281 4.390625 3.9375 0 7.808593-1.597656 10.597656-4.390625 2.789063-2.789062 4.402344-6.660156 4.402344-10.609375 0-3.9375-1.613281-7.808593-4.402344-10.597656s-6.660156-4.402344-10.597656-4.402344zm0 0"/>
  </symbol>

  <symbol id="phone" xmlns="http://www.w3.org/2000/svg" viewBox="0 0 480.56 480.56">
    <path d="M365.354,317.9c-15.7-15.5-35.3-15.5-50.9,0c-11.9,11.8-23.8,23.6-35.5,35.6c-3.2,3.3-5.9,4-9.8,1.8
      c-7.7-4.2-15.9-7.6-23.3-12.2c-34.5-21.7-63.4-49.6-89-81c-12.7-15.6-24-32.3-31.9-51.1c-1.6-3.8-1.3-6.3,1.8-9.4
      c11.9-11.5,23.5-23.3,35.2-35.1c16.3-16.4,16.3-35.6-0.1-52.1c-9.3-9.4-18.6-18.6-27.9-28c-9.6-9.6-19.1-19.3-28.8-28.8
      c-15.7-15.3-35.3-15.3-50.9,0.1c-12,11.8-23.5,23.9-35.7,35.5c-11.3,10.7-17,23.8-18.2,39.1c-1.9,24.9,4.2,48.4,12.8,71.3
      c17.6,47.4,44.4,89.5,76.9,128.1c43.9,52.2,96.3,93.5,157.6,123.3c27.6,13.4,56.2,23.7,87.3,25.4c21.4,1.2,40-4.2,54.9-20.9
      c10.2-11.4,21.7-21.8,32.5-32.7c16-16.2,16.1-35.8,0.2-51.8C403.554,355.9,384.454,336.9,365.354,317.9z"/>
    <path d="M346.254,238.2l36.9-6.3c-5.8-33.9-21.8-64.6-46.1-89c-25.7-25.7-58.2-41.9-94-46.9l-5.2,37.1
      c27.7,3.9,52.9,16.4,72.8,36.3C329.454,188.2,341.754,212,346.254,238.2z"/>
    <path d="M403.954,77.8c-42.6-42.6-96.5-69.5-156-77.8l-5.2,37.1c51.4,7.2,98,30.5,134.8,67.2c34.9,34.9,57.8,79,66.1,127.5
      l36.9-6.3C470.854,169.3,444.354,118.3,403.954,77.8z"/>
  </symbol>

  <symbol id="messenger" xmlns="http://www.w3.org/2000/svg" viewBox="0 0 512 512">
    <path d="M256.55 8C116.52 8 8 110.34 8 248.57c0 72.3 29.71 134.78 78.07 177.94 8.35 7.51 6.63 11.86 8.05 58.23A19.92 19.92 0 0 0 122 502.31c52.91-23.3 53.59-25.14 62.56-22.7C337.85 521.8 504 423.7 504 248.57 504 110.34 396.59 8 256.55 8zm149.24 185.13l-73 115.57a37.37 37.37 0 0 1-53.91 9.93l-58.08-43.47a15 15 0 0 0-18 0l-78.37 59.44c-10.46 7.93-24.16-4.6-17.11-15.67l73-115.57a37.36 37.36 0 0 1 53.91-9.93l58.06 43.46a15 15 0 0 0 18 0l78.41-59.38c10.44-7.98 24.14 4.54 17.09 15.62z"/>
  </symbol>
  <symbol id="admin" xmlns="http://www.w3.org/2000/svg" viewBox="0 0 448 512">
    <path d="M352 0l-64 32-64-32-64 32L96 0v96h256V0zm-38.4 304h-16.71c-22.24 10.18-46.88 16-72.89 16s-50.65-5.82-72.89-16H134.4C60.17 304 0 364.17 0 438.4V464c0 26.51 21.49 48 48 48h352c26.51 0 48-21.49 48-48v-25.6c0-74.23-60.17-134.4-134.4-134.4zM224 272c70.69 0 128-57.31 128-128v-16H96v16c0 70.69 57.31 128 128 128z"/>
  </symbol>
  <symbol id="logout" xmlns="http://www.w3.org/2000/svg" viewBox="0 0 512 512">
    <path d="M272 112v51.6h-96c-26.5 0-48 21.5-48 48v88.6c0 26.5 21.5 48 48 48h96v51.6c0 42.6 51.7 64.2 81.9 33.9l144-143.9c18.7-18.7 18.7-49.1 0-67.9l-144-144C323.8 48 272 69.3 272 112zm192 144L320 400v-99.7H176v-88.6h144V112l144 144zM96 64h84c6.6 0 12 5.4 12 12v24c0 6.6-5.4 12-12 12H96c-26.5 0-48 21.5-48 48v192c0 26.5 21.5 48 48 48h84c6.6 0 12 5.4 12 12v24c0 6.6-5.4 12-12 12H96c-53 0-96-43-96-96V160c0-53 43-96 96-96z"/>
  </symbol>
  <symbol id="login" xmlns="http://www.w3.org/2000/svg" viewBox="0 0 512 512">
    <path d="M144 112v51.6H48c-26.5 0-48 21.5-48 48v88.6c0 26.5 21.5 48 48 48h96v51.6c0 42.6 51.7 64.2 81.9 33.9l144-143.9c18.7-18.7 18.7-49.1 0-67.9l-144-144C195.8 48 144 69.3 144 112zm192 144L192 400v-99.7H48v-88.6h144V112l144 144zm80 192h-84c-6.6 0-12-5.4-12-12v-24c0-6.6 5.4-12 12-12h84c26.5 0 48-21.5 48-48V160c0-26.5-21.5-48-48-48h-84c-6.6 0-12-5.4-12-12V76c0-6.6 5.4-12 12-12h84c53 0 96 43 96 96v192c0 53-43 96-96 96z"/>
  </symbol>
</svg>

